<svg width="19" height="19" viewBox="0 0 19 19" fill="none" xmlns="http://www.w3.org/2000/svg">
<path fill-rule="evenodd" clip-rule="evenodd" d="M3.04635 0.135679L2.88857 0.271414V1.74308V3.21474L3.04635 3.35048C3.18287 3.46788 3.26103 3.48615 3.62702 3.48615C4.01944 3.48615 4.06172 3.47429 4.21427 3.3218L4.37862 3.15744V1.75174V0.345973L4.23305 0.173014C4.09326 0.00685962 4.06999 0 3.6458 0C3.25996 0 3.18417 0.0171493 3.04635 0.135679ZM11.2532 0.0859735C11.0573 0.223227 11.0142 0.517469 11.0139 1.72199C11.0135 3.01715 11.0309 3.15075 11.2249 3.3448C11.3504 3.4703 11.4129 3.48615 11.7823 3.48615C12.2773 3.48615 12.4477 3.39838 12.5304 3.10082C12.605 2.83205 12.6041 0.650843 12.5293 0.381172C12.4443 0.0752901 12.3004 0 11.8008 0C11.5105 0 11.337 0.0272149 11.2532 0.0859735ZM0.793451 1.76096C0.503706 1.86751 0.213962 2.13088 0.0980194 2.39308C-0.00487837 2.62569 -0.00813976 2.84689 0.00614223 8.62199L0.0209303 14.6097L0.19209 14.8535C0.286272 14.9876 0.476043 15.1606 0.613802 15.2379L0.864355 15.3784L4.70925 15.394L8.55419 15.4096L8.51736 15.2254C8.49706 15.1241 8.46462 14.7819 8.44522 14.4648L8.40997 13.8884H5.25354H2.0971L1.84947 13.7619C1.71335 13.6923 1.54983 13.564 1.48618 13.4766C1.37249 13.3208 1.37013 13.2519 1.35517 9.61093L1.33993 5.90397H7.72303H14.1061V7.27605V8.64814L14.525 8.64977C14.7554 8.65067 15.0591 8.66872 15.1998 8.6898L15.4556 8.72815V5.72196C15.4556 3.62408 15.4363 2.65797 15.3916 2.52459C15.2865 2.21067 15.0646 1.96405 14.7593 1.82191C14.5127 1.70709 14.3852 1.68786 13.8671 1.68741L13.2627 1.68685V2.46764C13.2627 3.21311 13.2556 3.26197 13.1056 3.54913C12.9912 3.76814 12.8739 3.896 12.6742 4.01948C12.4141 4.18029 12.3691 4.18901 11.8008 4.18901C11.2324 4.18901 11.1874 4.18029 10.9273 4.01948C10.7276 3.896 10.6103 3.76814 10.4959 3.54913C10.3459 3.26197 10.3388 3.21311 10.3388 2.46764V1.68685H7.72421H5.10959V2.39724C5.10959 3.23296 5.05207 3.46417 4.76216 3.7935C4.4917 4.10073 4.17013 4.21712 3.59148 4.21712C3.04298 4.21712 2.63796 4.03185 2.38286 3.66429C2.21721 3.42554 2.21327 3.40384 2.18572 2.56783L2.15761 1.71496L1.56721 1.70428C1.22 1.69798 0.901297 1.72132 0.793451 1.76096ZM2.89909 7.12115C2.87783 7.14234 2.86046 7.6236 2.86046 8.19061V9.22144H4.04249H5.22452L5.20923 8.16716L5.19393 7.11288L4.06583 7.0977C3.44535 7.08932 2.92034 7.09989 2.89909 7.12115ZM6.60903 7.12227C6.5884 7.14285 6.57153 7.6236 6.57153 8.19061V9.22144H7.75232H8.93312V8.1531V7.08476H7.78983C7.16097 7.08476 6.62961 7.10163 6.60903 7.12227ZM10.0831 7.15589C10.0676 7.19627 10.0618 7.67117 10.0703 8.2113L10.0858 9.19333H11.2666H12.4474V8.1531V7.11288L11.2793 7.0977C10.3593 7.08572 10.1053 7.09809 10.0831 7.15589ZM13.5719 9.86323C12.6051 10.0526 11.8284 10.4725 11.126 11.1856C10.2689 12.0555 9.86566 12.9692 9.79644 14.1976C9.69529 15.9931 10.7456 17.7634 12.3805 18.5529C13.0437 18.8731 13.4104 18.9588 14.2519 18.9902C14.8774 19.0135 15.059 18.9998 15.4608 18.8983C17.1733 18.4659 18.4535 17.1939 18.885 15.496C19.0392 14.8889 19.0384 13.976 18.8829 13.3261C18.4978 11.7166 17.2318 10.4093 15.6142 9.95083C15.0807 9.79958 14.1094 9.75797 13.5719 9.86323ZM2.86046 11.6674V12.7076H4.04125H5.22205V11.6674V10.6271H4.04125H2.86046V11.6674ZM6.57153 11.6674V12.7076H7.75232H8.93312V11.6674V10.6271H7.75232H6.57153V11.6674ZM13.9374 11.4152C12.4742 11.6471 11.3999 12.8879 11.3875 14.3603C11.3802 15.2188 11.6787 15.953 12.2792 16.5534C13.4542 17.7284 15.3422 17.7245 16.5222 16.5445C18.3723 14.6944 17.2072 11.5976 14.5841 11.3926C14.3985 11.3781 14.1075 11.3883 13.9374 11.4152ZM14.9358 13.5926L13.7134 14.8149L13.1635 14.2671L12.6137 13.7193L12.2076 14.1281L11.8014 14.5369L12.7573 15.4915L13.713 16.446L15.3566 14.8024L17.0002 13.1588L16.609 12.7645C16.3938 12.5477 16.2043 12.3702 16.1879 12.3702C16.1716 12.3702 15.6081 12.9203 14.9358 13.5926Z" fill="#3E3E3E"/>
</svg>
