<svg width="54" height="54" viewBox="0 0 54 54" fill="none" xmlns="http://www.w3.org/2000/svg">
<g clip-path="url(#clip0_1171_233)">
<path d="M20.25 6.75L16.1325 11.25H9C6.525 11.25 4.5 13.275 4.5 15.75V42.75C4.5 45.225 6.525 47.25 9 47.25H45C47.475 47.25 49.5 45.225 49.5 42.75V15.75C49.5 13.275 47.475 11.25 45 11.25H37.8675L33.75 6.75H20.25ZM27 40.5C20.79 40.5 15.75 35.46 15.75 29.25C15.75 23.04 20.79 18 27 18C33.21 18 38.25 23.04 38.25 29.25C38.25 35.46 33.21 40.5 27 40.5Z" fill="#818181"/>
<path d="M27 38.25L29.8125 32.0625L36 29.25L29.8125 26.4375L27 20.25L24.1875 26.4375L18 29.25L24.1875 32.0625L27 38.25Z" fill="#818181"/>
</g>
<defs>
<clipPath id="clip0_1171_233">
<rect width="54" height="54" fill="white"/>
</clipPath>
</defs>
</svg>
