<svg width="17" height="17" viewBox="0 0 17 17" fill="none" xmlns="http://www.w3.org/2000/svg">
<path fill-rule="evenodd" clip-rule="evenodd" d="M16.66 8.69316C16.66 8.09044 16.6059 7.51089 16.5055 6.95453H8.5V10.2425H13.0745C12.8775 11.305 12.2786 12.2052 11.3784 12.8079V14.9407H14.1255C15.7327 13.4609 16.66 11.2818 16.66 8.69316Z" fill="#4285F4"/>
<path fill-rule="evenodd" clip-rule="evenodd" d="M8.49978 16.9999C10.7948 16.9999 12.7189 16.2387 14.1252 14.9405L11.3782 12.8078C10.6171 13.3178 9.64342 13.6192 8.49978 13.6192C6.28592 13.6192 4.41205 12.124 3.74364 10.1149H0.90387V12.3171C2.30251 15.0951 5.17705 16.9999 8.49978 16.9999Z" fill="#34A853"/>
<path fill-rule="evenodd" clip-rule="evenodd" d="M3.74386 10.1151C3.57386 9.60507 3.47727 9.0603 3.47727 8.50007C3.47727 7.93985 3.57386 7.39507 3.74386 6.88507V4.6828H0.904091C0.328409 5.8303 0 7.12848 0 8.50007C0 9.87166 0.328409 11.1698 0.904091 12.3173L3.74386 10.1151Z" fill="#FBBC05"/>
<path fill-rule="evenodd" clip-rule="evenodd" d="M8.49978 3.38068C9.74773 3.38068 10.8682 3.80955 11.7491 4.65182L14.1871 2.21386C12.715 0.842273 10.7909 0 8.49978 0C5.17705 0 2.30251 1.90477 0.90387 4.68273L3.74364 6.885C4.41205 4.87591 6.28592 3.38068 8.49978 3.38068Z" fill="#EA4335"/>
</svg>
