<svg width="19" height="19" viewBox="0 0 19 19" fill="none" xmlns="http://www.w3.org/2000/svg">
<path d="M9.5 0.75C4.67 0.75 0.75 4.67 0.75 9.5C0.75 14.33 4.67 18.25 9.5 18.25C14.33 18.25 18.25 14.33 18.25 9.5C18.25 4.67 14.33 0.75 9.5 0.75ZM12.6587 6.2975C13.595 6.2975 14.3475 7.05 14.3475 7.98625C14.3475 8.9225 13.595 9.675 12.6587 9.675C11.7225 9.675 10.97 8.9225 10.97 7.98625C10.9612 7.05 11.7225 6.2975 12.6587 6.2975ZM7.40875 4.915C8.54625 4.915 9.47375 5.8425 9.47375 6.98C9.47375 8.1175 8.54625 9.045 7.40875 9.045C6.27125 9.045 5.34375 8.1175 5.34375 6.98C5.34375 5.83375 6.2625 4.915 7.40875 4.915ZM7.40875 12.9037V16.185C5.30875 15.5287 3.64625 13.91 2.91125 11.845C3.83 10.865 6.1225 10.3662 7.40875 10.3662C7.8725 10.3662 8.45875 10.4362 9.07125 10.5587C7.63625 11.32 7.40875 12.3262 7.40875 12.9037ZM9.5 16.5C9.26375 16.5 9.03625 16.4912 8.80875 16.465V12.9037C8.80875 11.6612 11.3812 11.04 12.6587 11.04C13.595 11.04 15.2137 11.3812 16.0187 12.0462C14.995 14.645 12.4662 16.5 9.5 16.5Z" fill="#323232"/>
</svg>
