<svg width="33" height="25" viewBox="0 0 33 25" fill="none" xmlns="http://www.w3.org/2000/svg">
<path fill-rule="evenodd" clip-rule="evenodd" d="M14.8672 0.744551C12.6573 1.53236 11.5294 4.22723 12.5186 6.35586C12.7231 6.7962 13.2391 7.48333 13.6651 7.88283C14.3738 8.54754 22.8757 15.4398 28.3035 19.7502C29.6988 20.858 30.5518 21.6744 30.5518 21.9018C30.5518 22.2533 29.9792 22.2681 16.3269 22.2681C2.19666 22.2681 2.10259 22.2655 2.16604 21.8662C2.20347 21.6322 4.56948 19.4377 7.83179 16.6113C10.9128 13.9423 13.4651 11.5945 13.5037 11.3941C13.5966 10.9114 12.9863 10.2589 12.4419 10.2589C11.8539 10.2589 0.761159 19.8364 0.256972 20.7795C-0.400933 22.0101 0.25397 23.6077 1.65685 24.1938C2.6338 24.6021 30.0481 24.6021 31.025 24.1938C32.4289 23.6073 33.0818 22.0121 32.4249 20.7743C32.1721 20.2982 30.0324 18.454 25.7441 15.0161C15.1796 6.54701 14.7571 6.19154 14.4259 5.4958C14.0283 4.66136 14.1915 3.86935 14.8996 3.19523C16.1624 1.99291 18.1493 2.67944 18.4638 4.42678C18.6349 5.37811 18.8751 5.65532 19.5278 5.65532C20.2533 5.65532 20.545 5.31206 20.5397 4.46441C20.5229 1.74752 17.5402 -0.208381 14.8672 0.744551Z" fill="black"/>
</svg>
