<svg width="18" height="18" viewBox="0 0 18 18" fill="none" xmlns="http://www.w3.org/2000/svg">
<path fill-rule="evenodd" clip-rule="evenodd" d="M6.07707 0.0902378C3.83138 0.829027 1.58859 1.59499 1.50548 1.65156C1.44733 1.69117 1.37036 1.76323 1.33444 1.81172C1.22533 1.95901 0.416624 4.22502 0.463227 4.25275C0.485193 4.26581 0.903895 4.52769 1.39367 4.83471L2.28418 5.39296L2.30067 5.00196C2.31541 4.65229 2.32501 4.60315 2.39153 4.53676C2.50347 4.42505 2.71159 4.43366 2.81538 4.5543L2.89434 4.64613V7.8435V11.0409H8.897H14.8997V7.8309V4.62096L14.9739 4.55167C15.0147 4.51357 15.0873 4.47267 15.1352 4.4608C15.2365 4.43567 15.4052 4.51097 15.4471 4.59998C15.4624 4.6324 15.4827 4.83887 15.4923 5.05879L15.5098 5.45863L16.4003 4.90002C16.8901 4.59276 17.3125 4.32887 17.3389 4.3136C17.3786 4.29068 17.3125 4.08145 16.9621 3.12013C16.7284 2.479 16.5029 1.90248 16.4609 1.83899C16.419 1.7755 16.3346 1.68965 16.2733 1.64819C16.2121 1.60673 15.1006 1.21894 13.8033 0.786414L11.4445 0L11.4268 0.696869C11.4171 1.08015 11.3931 1.45634 11.3735 1.53286C11.2663 1.9508 10.971 2.32382 10.5874 2.5258C10.2225 2.71795 9.82454 2.79777 9.12477 2.81914C7.5339 2.86772 6.73809 2.51482 6.44716 1.63167C6.39092 1.46099 6.37638 1.30776 6.36028 0.715075L6.34092 0.00346306L6.07707 0.0902378ZM6.98406 0.781302C6.98406 1.39529 7.02255 1.56313 7.21286 1.77933C7.49205 2.09648 7.94499 2.21191 8.91349 2.21267C9.4785 2.2131 9.61448 2.20298 9.86148 2.14219C10.2311 2.0512 10.4425 1.94285 10.5926 1.76755C10.7719 1.55802 10.8099 1.38487 10.8099 0.776916V0.254519L10.672 0.324902C9.67326 0.834436 8.36877 0.860293 7.28285 0.392152L6.98406 0.263326V0.781302ZM0.103101 5.09032L0 5.36856L1.13365 6.0774C1.75716 6.46724 2.27481 6.78624 2.28398 6.78624C2.29315 6.78624 2.30057 6.63409 2.30047 6.44818C2.30024 6.11447 2.29909 6.10942 2.20977 6.05734C2.16 6.02832 2.00054 5.93033 1.85542 5.83957C0.930083 5.26094 0.422396 4.94418 0.321703 4.88267L0.206234 4.81209L0.103101 5.09032ZM16.5473 5.52805L15.5098 6.17832L15.5003 6.48228C15.4951 6.64946 15.4979 6.78624 15.5065 6.78624C15.5221 6.78624 17.7389 5.40731 17.7678 5.37964C17.7858 5.36239 17.6351 4.90892 17.6052 4.89045C17.5939 4.88346 17.1178 5.17037 16.5473 5.52805ZM0.442713 11.6565C0.430609 11.6686 0.420714 12.3513 0.420714 13.1737V14.6689H1.19578H1.97085V13.8092C1.97085 13.241 1.98335 12.925 2.00769 12.8774C2.09701 12.7028 2.25779 12.649 2.42781 12.737C2.58646 12.819 2.5975 12.8891 2.5975 13.8129V14.6689H3.10872H3.61994V13.9976C3.61994 13.2609 3.64098 13.1436 3.78679 13.0683C3.9046 13.0073 3.96192 13.0073 4.07973 13.0683C4.22558 13.1437 4.24659 13.2609 4.24659 13.9985V14.6705L4.76605 14.6614L5.28551 14.6524L5.30332 13.7289C5.31311 13.221 5.32423 12.8021 5.32805 12.798C5.33185 12.7939 5.38132 12.7666 5.43792 12.7373C5.58818 12.6596 5.74983 12.6985 5.83116 12.8319C5.89052 12.9293 5.89544 13.0031 5.89554 13.8031L5.89567 14.6689H6.42338H6.95108V13.9297V13.1906L7.05257 13.1052C7.1616 13.0134 7.22885 13.0016 7.35963 13.0513C7.52401 13.1138 7.54475 13.2174 7.54475 13.9746V14.6689H8.07246H8.60017V13.7648V12.8607L8.70165 12.7753C8.82912 12.6681 8.96442 12.666 9.0848 12.7695L9.17735 12.8491L9.18708 13.759L9.1968 14.6689H9.72303H10.2492V13.9407V13.2126L10.3457 13.1162C10.4115 13.0504 10.4751 13.0198 10.5461 13.0198C10.6171 13.0198 10.6807 13.0504 10.7465 13.1162L10.8429 13.2126V13.9407V14.6689H11.3706H11.8983V13.7758V12.8828L11.9947 12.7864C12.1244 12.6567 12.266 12.6567 12.3956 12.7864L12.492 12.8828V13.7758V14.6689H13.0197H13.5474V13.9407V13.2126L13.6438 13.1162C13.7096 13.0504 13.7733 13.0198 13.8442 13.0198C13.9152 13.0198 13.9789 13.0504 14.0447 13.1162L14.1411 13.2126V13.9407V14.6689H14.6688H15.1965V13.7758V12.8828L15.2929 12.7864C15.3587 12.7206 15.4224 12.69 15.4933 12.69C15.5643 12.69 15.628 12.7206 15.6938 12.7864L15.7902 12.8828V13.7758V14.6689H16.5652H17.3403V13.1517V11.6345H8.90251C4.26169 11.6345 0.454784 11.6444 0.442713 11.6565ZM2.89434 15.7901V16.3179H8.89783H14.9013L14.8922 15.7985L14.8832 15.279L8.88876 15.2707L2.89434 15.2624V15.7901ZM2.9164 16.9335C2.90427 16.9456 2.89434 17.1906 2.89434 17.4778V18H8.89783H14.9013L14.8922 17.464L14.8832 16.9281L8.91082 16.9198C5.62605 16.9152 2.92857 16.9214 2.9164 16.9335Z" fill="white"/>
</svg>
