<svg width="16" height="18" viewBox="0 0 16 18" fill="none" xmlns="http://www.w3.org/2000/svg">
<path fill-rule="evenodd" clip-rule="evenodd" d="M7.22887 0.014402C5.83115 0.231651 4.84193 1.42789 4.90765 2.82133C4.92514 3.19188 4.9755 3.46722 5.08865 3.81084C5.44703 4.89919 6.19212 5.95028 7.44994 7.14191L7.59619 7.28046L7.73516 7.15603C8.11646 6.81456 8.75327 6.12563 9.04706 5.73678C9.85468 4.66774 10.249 3.74374 10.2913 2.82133C10.3252 2.0815 10.0674 1.37981 9.56687 0.849176C9.06587 0.318087 8.41582 0.0257531 7.68335 0.00214275C7.51224 -0.00337749 7.30773 0.00214276 7.22887 0.014402ZM7.3441 1.62753C6.90184 1.74522 6.56797 2.11092 6.50011 2.55194C6.41714 3.09125 6.76355 3.62466 7.296 3.77746C7.84707 3.93556 8.44739 3.628 8.64272 3.08745C8.81538 2.60968 8.63593 2.07593 8.20227 1.77746C7.97621 1.62184 7.6075 1.55744 7.3441 1.62753ZM4.43291 3.82489C4.1927 3.94022 3.83016 4.10647 2.15074 4.87135C0.306002 5.7115 0.278115 5.72445 0.289466 5.73415C0.294556 5.7385 0.456626 5.81325 0.649619 5.90024C0.842612 5.98722 1.07919 6.09507 1.17536 6.1399C1.40374 6.24634 2.35606 6.68024 2.67648 6.82384C2.81448 6.88568 2.97309 6.95964 3.02893 6.9882L3.13047 7.04013L3.27985 6.97075C3.36201 6.93261 3.78948 6.73778 4.22979 6.53781C4.67009 6.33784 5.13788 6.12336 5.26931 6.06116C5.40074 5.99898 5.55935 5.92865 5.62179 5.9049C5.68424 5.88117 5.7353 5.85106 5.7353 5.83801C5.7353 5.82496 5.65121 5.6893 5.54843 5.53657C5.33627 5.22127 5.1954 4.98008 5.02274 4.63653C4.90216 4.39656 4.72763 3.95809 4.69674 3.81744C4.67571 3.72161 4.64631 3.72244 4.43291 3.82489ZM10.8271 4.63285L9.98041 5.01987L9.80789 5.2943C9.5662 5.67881 9.23384 6.12336 8.95914 6.42961C8.9119 6.4823 8.81062 6.59528 8.73406 6.68072C8.55055 6.88549 8.05906 7.36881 7.85605 7.54414C7.68003 7.69615 7.6075 7.72717 7.52778 7.68449C7.43723 7.63605 7.09706 7.32725 6.75851 6.98619C6.57868 6.80505 6.42306 6.65682 6.41269 6.65682C6.39529 6.65682 5.86808 6.89459 4.82721 7.37184C4.5972 7.4773 4.40901 7.57528 4.40901 7.58957C4.40901 7.60386 4.89293 7.83595 5.48438 8.10532C6.07584 8.37471 6.60815 8.61748 6.66729 8.64484C6.72644 8.67218 6.89979 8.75123 7.05249 8.82049C7.20521 8.88974 7.38972 8.97558 7.46249 9.01121L7.59483 9.07599L7.72252 9.01575C7.84929 8.95594 12.3085 6.92224 12.8925 6.65789C12.9582 6.62814 13.1571 6.53685 13.3346 6.45501C13.512 6.37318 13.9387 6.17809 14.2828 6.02149C14.6269 5.86492 14.9011 5.72942 14.8922 5.72046C14.8786 5.70676 14.1212 5.35854 12.0322 4.40545C11.8613 4.3275 11.7108 4.25968 11.6976 4.25478C11.6845 4.24985 11.2927 4.41998 10.8271 4.63285ZM0 10.334V14.6326L0.119701 14.6841C0.185537 14.7124 0.364072 14.7944 0.516464 14.8662C0.668832 14.9381 0.797542 14.9969 0.802488 14.9969C0.807411 14.9969 0.889665 15.0332 0.985229 15.0775C1.15705 15.1572 1.42778 15.2809 2.54504 15.7903C2.86048 15.9342 3.17772 16.0792 3.25001 16.1126C3.32229 16.1461 4.16646 16.5311 5.12593 16.9682C6.0854 17.4052 6.97683 17.8126 7.1069 17.8735C7.23697 17.9343 7.35794 17.984 7.37574 17.984C7.40284 17.984 7.4081 17.2849 7.40805 13.6885L7.40803 9.39304L6.51789 8.98812C6.02833 8.76543 5.50615 8.52617 5.35754 8.45641C5.2089 8.38668 5.08344 8.32962 5.07871 8.32962C5.07175 8.32962 4.59536 8.11256 4.26563 7.95914L4.19394 7.92578L4.18766 8.73859C4.18137 9.54971 4.18125 9.55136 4.13164 9.53561C4.10428 9.52693 3.96983 9.46709 3.83288 9.40267C3.6959 9.33822 3.57993 9.2855 3.57515 9.2855C3.57037 9.2855 3.44955 9.23111 3.30667 9.16463C3.16378 9.09817 3.00678 9.02557 2.95779 9.00332L2.8687 8.96289L2.8622 8.13937L2.8557 7.31585L1.45772 6.67713C0.688834 6.32582 0.0463126 6.03774 0.0298714 6.03695C0.00606986 6.03578 0 6.91037 0 10.334ZM14.5772 6.29607C14.2684 6.43783 13.365 6.85019 12.5699 7.21245C11.7747 7.57468 11.0542 7.90317 10.9688 7.94241C10.6004 8.11163 10.2313 8.28024 10.1204 8.33C10.0547 8.35949 9.90081 8.4306 9.77845 8.48805C9.65608 8.54548 9.55186 8.59248 9.54684 8.59248C9.54182 8.59248 9.41613 8.6495 9.26749 8.71919C9.11887 8.78885 8.72574 8.96884 8.39386 9.11913L7.79045 9.39237V13.7016C7.79045 16.0716 7.79851 18.0059 7.80838 18C7.81825 17.9941 7.99836 17.9117 8.20865 17.8169C8.41895 17.7221 8.65015 17.6175 8.72244 17.5844C8.79473 17.5513 9.15498 17.3869 9.52299 17.219C9.89101 17.0511 10.2868 16.8696 10.4026 16.8156C10.5184 16.7617 10.6173 16.7175 10.6223 16.7175C10.6273 16.7175 10.7208 16.6753 10.83 16.6238C10.9392 16.5723 11.2705 16.4207 11.5662 16.2869C11.8619 16.1532 12.2974 15.9546 12.534 15.8455C12.7706 15.7365 13.0126 15.6256 13.0717 15.5992C13.4602 15.4252 13.6184 15.353 13.9679 15.1899C14.073 15.1409 14.3929 14.9947 14.6788 14.8651L15.1986 14.6295V10.3325C15.1986 6.91008 15.1925 6.03578 15.1687 6.0369C15.1523 6.03767 14.8861 6.15431 14.5772 6.29607ZM1.03312 13.3249L1.03952 13.8991L1.72035 14.209C2.09482 14.3795 2.40417 14.519 2.40782 14.519C2.41146 14.519 2.41158 14.2554 2.40804 13.9332L2.40166 13.3475L2.17464 13.2447C2.04977 13.1882 1.90998 13.1244 1.86397 13.1028C1.48026 12.9235 1.08488 12.7506 1.05862 12.7506C1.03274 12.7506 1.02793 12.8587 1.03312 13.3249Z" fill="#505050"/>
</svg>
